<svg xmlns="http://www.w3.org/2000/svg" width="50.949" height="48.933" viewBox="0 0 50.949 48.933">
  <g id="friends" transform="translate(0 -0.514)">
    <g id="Grupo_12" data-name="Grupo 12" transform="translate(0 6.569)">
      <path id="Trazado_11" data-name="Trazado 11" d="M23.347,30.194c-.257-.084-1.87-1.741-.862-4.855h-.014a17.7,17.7,0,0,0,4.881-11.532c0-6.7-4.63-10.207-9.729-10.207S8.1,7.11,8.1,13.806A17.527,17.527,0,0,0,12.8,25.37a4.126,4.126,0,0,1-1.2,4.824C6.265,32.153,0,35.728,0,39.255v1.323c0,4.806,9.179,5.9,17.675,5.9s17.571-1.093,17.571-5.9V39.255C35.246,35.62,28.95,32.076,23.347,30.194Z" transform="translate(0 -3.599)" fill="#135a98"/>
    </g>
    <g id="Grupo_13" data-name="Grupo 13" transform="translate(26.204 0.514)">
      <path id="Trazado_12" data-name="Trazado 12" d="M26.908,24.334c-.239-.08-1.758-.451-.811-3.382h-.012a16.3,16.3,0,0,0,4.178-10.839c0-6.3-3.945-9.6-8.737-9.6A8.171,8.171,0,0,0,13.593,5.77a13.759,13.759,0,0,1,4.834,11,21.464,21.464,0,0,1-5.075,13.24c4.133,1.564,10.592,4.71,12.441,9.519,6.512-.361,12.3-1.713,12.3-5.438V32.851C38.094,29.437,32.175,26.1,26.908,24.334Z" transform="translate(-13.352 -0.514)" fill="#135a98"/>
    </g>
  </g>
</svg>
