<svg xmlns="http://www.w3.org/2000/svg" xmlns:xlink="http://www.w3.org/1999/xlink" width="121.286" height="92.356" viewBox="0 0 121.286 92.356">
  <defs>
    <clipPath id="clip-path">
      <rect width="121.286" height="92.356" fill="none"/>
    </clipPath>
  </defs>
  <g id="Grupo_5" data-name="Grupo 5" transform="translate(-127.757 -140.227)">
    <g id="logo" transform="translate(127.757 140.227)" clip-path="url(#clip-path)">
      <path id="Trazado_2" data-name="Trazado 2" d="M316.762-344.139s20.389-11.409,29.295-19.089,15-17.992,14.53-32.034-12.421-19.527-17.108-21.722c-4.059-1.9-10.658.456-13.092,1.521h0s-.134-.239,2.57,2.462c.871.87,1.315,1.262,1.731,1.66h0s.029.188,1.4-.347c2.318-.486,8.257-1.1,12.01,3.582,4.867,6.076,5.408,8.608,6.31,11.308s1.8,13-3.245,19.072-8.653,11.308-10.636,12.321-8.833,6.245-8.833,6.245a22.819,22.819,0,0,0-17.306-11.814c-12.619-1.688-18.208-5.57-18.208-5.57h-1.622s-1.8,2.532,0,3.544,3.065,4.219,7.932,6.076,5.949,2.363,5.949,2.363-7.387.6-7.942,0" transform="translate(-258.579 418.112)" fill="#135a98" stroke="#135a98" stroke-width="1"/>
      <g id="Trazado_6" data-name="Trazado 6" transform="translate(33.484 20.713) rotate(-13)" fill="#1bf007">
        <path d="M 6.767570972442627 17.73172569274902 C 6.747200965881348 17.73172569274902 6.727381229400635 17.73159408569336 6.706951141357422 17.73130416870117 C 3.355991125106812 17.6843147277832 0.5721809864044189 13.77481460571289 0.5013710260391235 9.016385078430176 C 0.4601610004901886 6.246564865112305 1.374071002006531 3.640354871749878 2.946080923080444 2.044774770736694 C 3.941751003265381 1.034174799919128 5.122621059417725 0.500004768371582 6.361021041870117 0.500004768371582 C 6.381391048431396 0.500004768371582 6.401220798492432 0.5001347661018372 6.421650886535645 0.5004247426986694 C 9.772610664367676 0.5474147796630859 12.55642127990723 4.456914901733398 12.62723064422607 9.215344429016113 C 12.66844081878662 11.98516464233398 11.75453090667725 14.59136486053467 10.18252086639404 16.18694496154785 C 9.186841011047363 17.19755554199219 8.00597095489502 17.73172569274902 6.767570972442627 17.73172569274902 Z" stroke="none"/>
        <path d="M 6.361031055450439 1.000003814697266 C 5.259551048278809 1.000003814697266 4.201841354370117 1.482624053955078 3.302250862121582 2.395705223083496 C 1.822211265563965 3.897924423217773 0.9620513916015625 6.37016487121582 1.001320838928223 9.008944511413574 C 1.034510612487793 11.23931503295898 1.683311462402344 13.33432483673096 2.828210830688477 14.90803527832031 C 3.903580665588379 16.38619422912598 5.283571243286133 17.21129417419434 6.713981151580811 17.23135375976563 C 6.732040882110596 17.23160552978516 6.749560832977295 17.23172378540039 6.767570972442627 17.23172378540039 C 7.869050979614258 17.23172378540039 8.926761627197266 16.74910545349121 9.826351165771484 15.83602523803711 C 11.3063907623291 14.33380508422852 12.1665506362915 11.86156463623047 12.12728118896484 9.222784996032715 C 12.09409141540527 6.992414474487305 11.44529151916504 4.897404670715332 10.30039119720459 3.323695182800293 C 9.225021362304688 1.845535278320313 7.845030784606934 1.020435333251953 6.414620876312256 1.000373840332031 C 6.396561145782471 1.000123977661133 6.379041194915771 1.000003814697266 6.361031055450439 1.000003814697266 M 6.361032009124756 0 C 6.383759021759033 0 6.405874729156494 0.0001544952392578125 6.428660869598389 0.0004749298095703125 C 10.05323123931885 0.05130386352539063 13.05226135253906 4.173614501953125 13.12717056274414 9.207904815673828 C 13.20160961151123 14.21054649353027 10.35993385314941 18.23172950744629 6.767570018768311 18.23172950744629 C 6.744843006134033 18.23172950744629 6.722727298736572 18.23157501220703 6.699941158294678 18.23125457763672 C 3.075370788574219 18.1804256439209 0.07634067535400391 14.05811500549316 0.001431465148925781 9.023824691772461 C -0.07300758361816406 4.021183013916016 2.768668174743652 0 6.361032009124756 0 Z" stroke="none" fill="#83f069"/>
      </g>
      <g id="Trazado_4" data-name="Trazado 4" transform="matrix(0.995, -0.105, 0.105, 0.995, 45.534, 4.841)" fill="#1bf007">
        <path d="M 6.68171215057373 20.27924346923828 L 6.656792163848877 20.2791633605957 C 5.074742317199707 20.26866340637207 3.563372135162354 19.25909233093262 2.401092290878296 17.43642234802246 C 1.194392204284668 15.54412269592285 0.5193922519683838 13.02475261688232 0.5004122257232666 10.34243297576904 C 0.4760722517967224 6.903892517089844 1.537972211837769 3.766962766647339 3.34098219871521 1.95114266872406 C 4.283642292022705 1.001802682876587 5.368472099304199 0.5000026822090149 6.478192329406738 0.5000026822090149 L 6.503112316131592 0.5000826716423035 C 8.085162162780762 0.5105826854705811 9.596531867980957 1.520142674446106 10.75882244110107 3.342812776565552 C 11.9655122756958 5.235122680664063 12.64051246643066 7.754482746124268 12.65949249267578 10.43681240081787 C 12.6838321685791 13.87535285949707 11.62193202972412 17.01228332519531 9.81892204284668 18.82810211181641 C 8.876262664794922 19.77744293212891 7.79143238067627 20.27924346923828 6.68171215057373 20.27924346923828 Z" stroke="none"/>
        <path d="M 6.478192329406738 1.000001907348633 C 5.248222351074219 1.000001907348633 4.286222457885742 1.708822250366211 3.695792198181152 2.30345344543457 C 2.891092300415039 3.113862991333008 2.216682434082031 4.256153106689453 1.745462417602539 5.606842994689941 C 1.246252059936523 7.037762641906738 0.988612174987793 8.674072265625 1.000391960144043 10.33889293670654 C 1.018722534179688 12.9284029006958 1.665882110595703 15.35354232788086 2.822662353515625 17.16759300231934 C 3.890642166137695 18.84236335754395 5.253462314605713 19.76984214782715 6.659762382507324 19.77917289733887 L 6.68171215057373 19.77924346923828 C 7.91168212890625 19.77924346923828 8.873682022094727 19.0704231262207 9.464112281799316 18.47579193115234 C 10.26881217956543 17.66538238525391 10.94322204589844 16.52309226989746 11.41444206237793 15.17240333557129 C 11.91365242004395 13.74148273468018 12.17129230499268 12.10517311096191 12.15951251983643 10.44035243988037 C 12.14118194580078 7.850842475891113 11.49402236938477 5.425692558288574 10.33724212646484 3.611652374267578 C 9.269271850585938 1.936882019042969 7.906442165374756 1.009403228759766 6.500142097473145 1.000072479248047 L 6.478192329406738 1.000001907348633 M 6.478194713592529 -1.9073486328125e-06 C 6.48772144317627 -1.9073486328125e-06 6.496895313262939 2.86102294921875e-05 6.506432056427002 9.34600830078125e-05 C 10.14020252227783 0.02420234680175781 13.11888217926025 4.695293426513672 13.1594820022583 10.43327236175537 C 13.19998550415039 16.15619277954102 10.30216312408447 20.77924728393555 6.681709766387939 20.77924728393555 C 6.672183036804199 20.77924728393555 6.663009166717529 20.77921676635742 6.653472423553467 20.77915191650391 C 3.019701957702637 20.75504302978516 0.04102230072021484 16.08394241333008 0.0004224777221679688 10.34597301483154 C -0.04008102416992188 4.623052597045898 2.857741355895996 -1.9073486328125e-06 6.478194713592529 -1.9073486328125e-06 Z" stroke="none" fill="#83f069"/>
      </g>
      <g id="Trazado_8" data-name="Trazado 8" transform="matrix(0.985, 0.174, -0.174, 0.985, 64.439, 3.748)" fill="#1bf007">
        <path d="M 6.405334949493408 20.30676078796387 C 5.302355289459229 20.30676078796387 4.226634979248047 19.80829048156738 3.294485092163086 18.86524200439453 C 1.505365133285522 17.05520057678223 0.4611151218414307 13.92091178894043 0.5011051297187805 10.48100090026855 C 0.532335102558136 7.794401168823242 1.218345165252686 5.268011569976807 2.432745218276978 3.367231369018555 C 3.602905035018921 1.535691380500793 5.118035316467285 0.5175013542175293 6.699005126953125 0.5002213716506958 L 6.739865303039551 0.5000013709068298 C 7.842834949493408 0.5000013709068298 8.91855525970459 0.9984713196754456 9.850705146789551 1.941521406173706 C 11.63982486724854 3.751551389694214 12.68407535552979 6.885851383209229 12.64408493041992 10.32576179504395 C 12.61285495758057 13.01236152648926 11.92685508728027 15.53875160217285 10.71244525909424 17.43953132629395 C 9.542284965515137 19.27107048034668 8.027165412902832 20.28926086425781 6.446195125579834 20.30654144287109 L 6.405334949493408 20.30676078796387 Z" stroke="none"/>
        <path d="M 6.739865303039551 1.000001907348633 L 6.704474925994873 1.000190734863281 C 5.297825336456299 1.015562057495117 3.930395126342773 1.951801300048828 2.854084968566895 3.636430740356445 C 1.689314842224121 5.459531784057617 1.031234741210938 7.89238166809082 1.001065254211426 10.48681163787842 C 0.9817047119140625 12.15283107757568 1.231095314025879 13.78907203674316 1.722285270690918 15.21865081787109 C 2.185615539550781 16.56714248657227 2.852234840393066 17.70656204223633 3.65008544921875 18.51374053955078 C 4.233135223388672 19.10361099243164 5.18443489074707 19.80676078796387 6.405334949493408 19.80676078796387 L 6.440725326538086 19.80657196044922 C 7.84737491607666 19.79120063781738 9.214795112609863 18.85496139526367 10.29110527038574 17.17033195495605 C 11.45587539672852 15.34723091125488 12.1139554977417 12.91438102722168 12.14412498474121 10.31995105743408 C 12.16348552703857 8.653931617736816 11.91409492492676 7.017691612243652 11.42290496826172 5.588101387023926 C 10.95957565307617 4.239622116088867 10.29295539855957 3.100191116333008 9.495104789733887 2.293010711669922 C 8.912055015563965 1.703151702880859 7.960755348205566 1.000001907348633 6.739865303039551 1.000001907348633 M 6.739860534667969 -1.9073486328125e-06 C 10.34762954711914 -1.9073486328125e-06 13.21056365966797 4.61027717590332 13.14405536651611 10.33157157897949 C 13.07725524902344 16.07706069946289 10.08096504211426 20.7668514251709 6.45165491104126 20.80651092529297 C 6.436370372772217 20.80667877197266 6.420597553253174 20.80676460266113 6.40533971786499 20.80676460266113 C 2.797560691833496 20.80676460266113 -0.06537342071533203 16.19648361206055 0.001134872436523438 10.47519111633301 C 0.06793498992919922 4.729701995849609 3.064225196838379 0.03991127014160156 6.693545341491699 0.00025177001953125 C 6.708829879760742 8.392333984375e-05 6.724602699279785 -1.9073486328125e-06 6.739860534667969 -1.9073486328125e-06 Z" stroke="none" fill="#83f069"/>
      </g>
      <g id="Trazado_7" data-name="Trazado 7" transform="translate(75.074 20.822) rotate(16)" fill="#1bf007">
        <path d="M 5.965967178344727 19.06778335571289 C 4.93123722076416 19.06778335571289 3.925926923751831 18.60109329223633 3.058727025985718 17.71818351745605 C 1.40045702457428 16.02986335754395 0.444847047328949 13.10654354095459 0.5024570226669312 9.898283958435059 C 0.5477270483970642 7.376933574676514 1.209177017211914 5.002273559570313 2.36493706703186 3.211743593215942 C 3.477196931838989 1.488613605499268 4.908106803894043 0.5257436037063599 6.39406681060791 0.5005136132240295 C 6.413856983184814 0.5001735687255859 6.434096813201904 0.5000035762786865 6.453826904296875 0.5000035762786865 C 7.488556861877441 0.5000035762786865 8.493866920471191 0.9666935801506042 9.361066818237305 1.849603533744812 C 11.01933670043945 3.537923574447632 11.97494697570801 6.461243629455566 11.91733741760254 9.669503211975098 C 11.87206745147705 12.19085311889648 11.21061706542969 14.56551361083984 10.05485725402832 16.35604286193848 C 8.942597389221191 18.07917404174805 7.511687278747559 19.04204368591309 6.025727272033691 19.06727409362793 C 6.005937099456787 19.06761360168457 5.985697269439697 19.06778335571289 5.965967178344727 19.06778335571289 Z" stroke="none"/>
        <path d="M 6.453826904296875 1.000003814697266 C 6.43684720993042 1.000003814697266 6.419416904449463 1.000154495239258 6.402556896209717 1.000444412231445 C 5.088676929473877 1.02275276184082 3.803947448730469 1.904373168945313 2.785027503967285 3.482904434204102 C 1.679086685180664 5.196233749389648 1.04599666595459 7.477783203125 1.002377510070801 9.90726375579834 C 0.9745073318481445 11.45908355712891 1.197007179260254 12.98203372955322 1.645807266235352 14.31144332885742 C 2.068037033081055 15.56214332580566 2.679966926574707 16.6190128326416 3.415436744689941 17.36781311035156 C 3.953117370605469 17.91523361206055 4.832067012786865 18.56778335571289 5.965967178344727 18.56778335571289 C 5.982946872711182 18.56778335571289 6.000377178192139 18.56763458251953 6.017237186431885 18.56734275817871 C 7.331117153167725 18.54503440856934 8.615846633911133 17.66341400146484 9.634767532348633 16.08488464355469 C 10.74070739746094 14.37155342102051 11.37379741668701 12.09000396728516 11.41741752624512 9.660523414611816 C 11.44528675079346 8.10870361328125 11.22278690338135 6.585753440856934 10.77398681640625 5.256343841552734 C 10.35175704956055 4.005643844604492 9.739827156066895 2.948774337768555 9.00435733795166 2.199974060058594 C 8.466676712036133 1.652553558349609 7.587727069854736 1.000003814697266 6.453826904296875 1.000003814697266 M 6.453831195831299 3.814697265625e-06 C 9.849842071533203 3.814697265625e-06 12.51364707946777 4.310930252075195 12.41725730895996 9.678483963012695 C 12.320237159729 15.08166313171387 9.462447166442871 19.50899314880371 6.03421688079834 19.56720352172852 C 6.011618614196777 19.56758689880371 5.988497257232666 19.56778335571289 5.965962886810303 19.56778335571289 C 2.569952011108398 19.56778335571289 -0.09385299682617188 15.25685691833496 0.002536773681640625 9.889303207397461 C 0.09955692291259766 4.486124038696289 2.95734691619873 0.05879402160644531 6.385577201843262 0.000583648681640625 C 6.408175468444824 0.0002002716064453125 6.431296825408936 3.814697265625e-06 6.453831195831299 3.814697265625e-06 Z" stroke="none" fill="#83f069"/>
      </g>
      <path id="Trazado_3" data-name="Trazado 3" d="M663.885-348.888s6.379,2.077,8.043,2.467,7.211,1.168,9.43,1.947a21.069,21.069,0,0,1,6.656,3.765c1.248,1.3,3.328,3.505,3.328,3.505s1.387-8.179-2.773-13.113-7.488-8.309-8.6-8.7-6.24-1.428-9.152,1.688S663.885-348.888,663.885-348.888Z" transform="translate(-616.836 390.538)" fill="#1bf007" stroke="#83f069" stroke-width="1"/>
      <path id="Trazado_5" data-name="Trazado 5" d="M370.212-343.715s-19.8-11.383-28.707-19.062-15-17.992-14.53-32.034,12.729-18.706,17.416-20.9c4.059-1.9,11.753.508,14.186,1.574.153.066-.968,0-.968,0s2.277-1.04,0,2.112a8.066,8.066,0,0,1-1.463,1.958c-.4.389-.323.286-.323.286s-2.979-.92-4.352-1.456c-2.318-.486-8.257-1.1-12.01,3.582-4.867,6.076-5.408,8.608-6.31,11.308s-1.8,13,3.245,19.072,15.275,12.324,17.258,13.336" transform="translate(-311.044 417.663)" fill="#135a98" stroke="#135a98" stroke-width="1"/>
    </g>
  </g>
</svg>
