<svg xmlns="http://www.w3.org/2000/svg" width="41.214" height="41.214" viewBox="0 0 41.214 41.214">
  <g id="Grupo_21" data-name="Grupo 21" transform="translate(-4262 120)">
    <g id="lupa" transform="translate(4262 -120)">
      <g id="Grupo_18" data-name="Grupo 18">
        <g id="Grupo_17" data-name="Grupo 17">
          <path id="Trazado_16" data-name="Trazado 16" d="M40.271,35.718,29.526,24.973A15.955,15.955,0,0,0,32.2,16.1,16.1,16.1,0,1,0,16.1,32.2a15.956,15.956,0,0,0,8.874-2.672l2.97,2.97h0l7.773,7.773a3.22,3.22,0,1,0,4.553-4.553ZM24.595,27.83h0a14.5,14.5,0,1,1,3.235-3.235A14.56,14.56,0,0,1,24.595,27.83Zm1.689.73a16.154,16.154,0,0,0,2.276-2.276l2.284,2.284a19.539,19.539,0,0,1-2.276,2.276ZM39.133,39.133a1.609,1.609,0,0,1-2.276,0l-7.148-7.148a21.153,21.153,0,0,0,2.276-2.276l7.148,7.148a1.609,1.609,0,0,1,0,2.276Z"/>
        </g>
      </g>
      <g id="Grupo_20" data-name="Grupo 20" transform="translate(3.22 3.22)">
        <g id="Grupo_19" data-name="Grupo 19">
          <path id="Trazado_17" data-name="Trazado 17" d="M52.879,40A12.879,12.879,0,1,0,65.759,52.879,12.894,12.894,0,0,0,52.879,40Zm0,24.149a11.27,11.27,0,1,1,11.27-11.27A11.282,11.282,0,0,1,52.879,64.149Z" transform="translate(-40 -40)"/>
        </g>
      </g>
    </g>
    <g id="pawprint" transform="translate(4267.337 -107.726) rotate(-20)">
      <path id="Trazado_19" data-name="Trazado 19" d="M73.966,183.913a4.264,4.264,0,0,0-7.181,0l-1.9,2.962a2.7,2.7,0,0,0,3.359,3.928l.035-.016a5.306,5.306,0,0,1,4.226.016,2.685,2.685,0,0,0,1.083.229,2.719,2.719,0,0,0,.6-.069,2.7,2.7,0,0,0,1.672-4.088Zm.9,5.506a1.663,1.663,0,0,1-1.944.444,6.334,6.334,0,0,0-5.087,0l-.023.01a1.673,1.673,0,0,1-2.059-2.444l1.9-2.962a3.238,3.238,0,0,1,5.452,0l1.9,2.962A1.663,1.663,0,0,1,74.863,189.419Zm0,0" transform="translate(-62.255 -175.726)"/>
      <path id="Trazado_20" data-name="Trazado 20" d="M3.143,103.695a2.071,2.071,0,0,0,1.209-1.282,2.675,2.675,0,0,0-.047-1.844,2.677,2.677,0,0,0-1.2-1.4,2.071,2.071,0,0,0-1.755-.141,2.37,2.37,0,0,0-1.161,3.126,2.5,2.5,0,0,0,2.249,1.672,1.961,1.961,0,0,0,.707-.131Zm-2-1.91a1.354,1.354,0,0,1,.571-1.8.952.952,0,0,1,.344-.063,1.158,1.158,0,0,1,.552.149,1.649,1.649,0,0,1,.734.867,1.648,1.648,0,0,1,.037,1.135,1.061,1.061,0,0,1-.608.664h0a1.353,1.353,0,0,1-1.629-.952Zm0,0" transform="translate(0 -95.511)"/>
      <path id="Trazado_21" data-name="Trazado 21" d="M126.986,5.863a2.772,2.772,0,0,0,2.572-2.931,2.594,2.594,0,1,0-5.145,0A2.772,2.772,0,0,0,126.986,5.863Zm0-4.836a1.756,1.756,0,0,1,1.546,1.9,1.58,1.58,0,1,1-3.092,0,1.756,1.756,0,0,1,1.546-1.9Zm0,0" transform="translate(-120.159)"/>
      <path id="Trazado_22" data-name="Trazado 22" d="M285.744,45.46h0a2.1,2.1,0,0,0,.662.107,2.666,2.666,0,0,0,2.427-1.91,2.875,2.875,0,0,0-.041-1.983,2.175,2.175,0,0,0-3.224-1.071,2.875,2.875,0,0,0-1.22,1.564,2.543,2.543,0,0,0,1.395,3.294Zm-.421-2.97a1.849,1.849,0,0,1,.777-1.009,1.15,1.15,0,0,1,1.74.578,1.848,1.848,0,0,1,.018,1.274,1.368,1.368,0,1,1-2.536-.843Zm0,0" transform="translate(-274.474 -38.877)"/>
      <path id="Trazado_23" data-name="Trazado 23" d="M380.537,171.444h0a2.521,2.521,0,0,0-2.976,4.02,2.011,2.011,0,0,0,1.208.39,2.6,2.6,0,0,0,2.054-1.088A2.371,2.371,0,0,0,380.537,171.444Zm-.54,2.711a1.209,1.209,0,1,1-1.9-1.4,1.576,1.576,0,0,1,1.222-.675,1,1,0,0,1,.6.192,1.354,1.354,0,0,1,.071,1.886Zm0,0" transform="translate(-363.849 -165.203)"/>
    </g>
  </g>
</svg>
